<svg width="1280" height="760" viewBox="0 0 1280 760" fill="none" xmlns="http://www.w3.org/2000/svg">
  <rect width="1280" height="760" fill="#F5F7FA"/>
  <rect x="70" y="54" width="1140" height="652" rx="24" fill="white" stroke="#D7DEE7" stroke-width="2"/>
  <rect x="70" y="54" width="1140" height="72" rx="24" fill="#0E4A7B"/>
  <text x="112" y="100" fill="white" font-family="Arial, sans-serif" font-size="30" font-weight="700">Add Integration • Idegis Modbus</text>

  <rect x="110" y="170" width="540" height="470" rx="20" fill="#FBFCFE" stroke="#D7DEE7" stroke-width="2"/>
  <text x="145" y="220" fill="#16324F" font-family="Arial, sans-serif" font-size="28" font-weight="700">Bridge Connection</text>

  <text x="145" y="275" fill="#4C627A" font-family="Arial, sans-serif" font-size="20">Host</text>
  <rect x="145" y="290" width="470" height="52" rx="12" fill="white" stroke="#C5D0DB" stroke-width="2"/>
  <text x="165" y="324" fill="#16324F" font-family="Arial, sans-serif" font-size="22">192.168.2.124</text>

  <text x="145" y="385" fill="#4C627A" font-family="Arial, sans-serif" font-size="20">Port</text>
  <rect x="145" y="400" width="220" height="52" rx="12" fill="white" stroke="#C5D0DB" stroke-width="2"/>
  <text x="165" y="434" fill="#16324F" font-family="Arial, sans-serif" font-size="22">4196</text>

  <text x="395" y="385" fill="#4C627A" font-family="Arial, sans-serif" font-size="20">Slave</text>
  <rect x="395" y="400" width="220" height="52" rx="12" fill="white" stroke="#C5D0DB" stroke-width="2"/>
  <text x="415" y="434" fill="#16324F" font-family="Arial, sans-serif" font-size="22">1</text>

  <text x="145" y="495" fill="#4C627A" font-family="Arial, sans-serif" font-size="20">Timeout</text>
  <rect x="145" y="510" width="220" height="52" rx="12" fill="white" stroke="#C5D0DB" stroke-width="2"/>
  <text x="165" y="544" fill="#16324F" font-family="Arial, sans-serif" font-size="22">2</text>

  <text x="395" y="495" fill="#4C627A" font-family="Arial, sans-serif" font-size="20">Delay Between Requests (ms)</text>
  <rect x="395" y="510" width="220" height="52" rx="12" fill="white" stroke="#C5D0DB" stroke-width="2"/>
  <text x="415" y="544" fill="#16324F" font-family="Arial, sans-serif" font-size="22">100</text>

  <rect x="145" y="585" width="180" height="42" rx="21" fill="#E6F4EA"/>
  <circle cx="169" cy="606" r="8" fill="#1E8E3E"/>
  <text x="188" y="613" fill="#1E8E3E" font-family="Arial, sans-serif" font-size="18" font-weight="700">Connection OK</text>

  <rect x="740" y="170" width="420" height="470" rx="20" fill="#F7FAFD" stroke="#D7DEE7" stroke-width="2"/>
  <text x="775" y="220" fill="#16324F" font-family="Arial, sans-serif" font-size="28" font-weight="700">What Happens Next</text>
  <text x="775" y="280" fill="#30465F" font-family="Arial, sans-serif" font-size="22">1. Validates the Modbus TCP bridge</text>
  <text x="775" y="330" fill="#30465F" font-family="Arial, sans-serif" font-size="22">2. Creates a Hub device in Home Assistant</text>
  <text x="775" y="380" fill="#30465F" font-family="Arial, sans-serif" font-size="22">3. Loads sensors, switches and setpoints</text>
  <text x="775" y="430" fill="#30465F" font-family="Arial, sans-serif" font-size="22">4. Exposes diagnostics and maintenance buttons</text>

  <rect x="820" y="540" width="180" height="56" rx="14" fill="#0E4A7B"/>
  <text x="875" y="575" fill="white" font-family="Arial, sans-serif" font-size="24" font-weight="700">Submit</text>
</svg>

