<svg width="1280" height="760" viewBox="0 0 1280 760" fill="none" xmlns="http://www.w3.org/2000/svg">
  <rect width="1280" height="760" fill="#F5F7FA"/>
  <rect x="120" y="70" width="1040" height="620" rx="24" fill="white" stroke="#D7DEE7" stroke-width="2"/>
  <text x="170" y="130" fill="#16324F" font-family="Arial, sans-serif" font-size="34" font-weight="700">Idegis Modbus • Options</text>

  <text x="170" y="210" fill="#4C627A" font-family="Arial, sans-serif" font-size="22">Polling Interval (seconds)</text>
  <rect x="170" y="230" width="280" height="54" rx="12" fill="white" stroke="#C5D0DB" stroke-width="2"/>
  <text x="195" y="265" fill="#16324F" font-family="Arial, sans-serif" font-size="24">15</text>

  <rect x="170" y="330" width="800" height="64" rx="16" fill="#F7FAFD" stroke="#D7DEE7" stroke-width="2"/>
  <circle cx="220" cy="362" r="18" fill="#0E4A7B"/>
  <rect x="208" y="355" width="24" height="14" rx="7" fill="white"/>
  <text x="265" y="370" fill="#16324F" font-family="Arial, sans-serif" font-size="24">Create UV entities</text>

  <rect x="170" y="420" width="800" height="64" rx="16" fill="#F7FAFD" stroke="#D7DEE7" stroke-width="2"/>
  <circle cx="220" cy="452" r="18" fill="#0E4A7B"/>
  <rect x="208" y="445" width="24" height="14" rx="7" fill="white"/>
  <text x="265" y="460" fill="#16324F" font-family="Arial, sans-serif" font-size="24">Create digital input entities</text>

  <rect x="170" y="510" width="800" height="64" rx="16" fill="#F7FAFD" stroke="#D7DEE7" stroke-width="2"/>
  <circle cx="220" cy="542" r="18" fill="#0E4A7B"/>
  <rect x="208" y="535" width="24" height="14" rx="7" fill="white"/>
  <text x="265" y="550" fill="#16324F" font-family="Arial, sans-serif" font-size="24">Create diagnostics entities</text>

  <rect x="170" y="600" width="800" height="64" rx="16" fill="#F7FAFD" stroke="#D7DEE7" stroke-width="2"/>
  <circle cx="220" cy="632" r="18" fill="#0E4A7B"/>
  <rect x="208" y="625" width="24" height="14" rx="7" fill="white"/>
  <text x="265" y="640" fill="#16324F" font-family="Arial, sans-serif" font-size="24">Create maintenance buttons</text>

  <rect x="1000" y="598" width="110" height="48" rx="12" fill="#0E4A7B"/>
  <text x="1030" y="629" fill="white" font-family="Arial, sans-serif" font-size="24" font-weight="700">Save</text>
</svg>
